<svg width="48" height="48" viewBox="0 0 48 48" fill="none" xmlns="http://www.w3.org/2000/svg">
<path d="M0 24C0 10.7452 10.7452 0 24 0V0C37.2548 0 48 10.7452 48 24V24C48 37.2548 37.2548 48 24 48V48C10.7452 48 0 37.2548 0 24V24Z" fill="#3741D9"/>
<path d="M17.127 21.9185H13.2485V26H12.0298V16.7578H17.7554V17.7607H13.2485V20.9219H17.127V21.9185ZM22.186 20.1855C22.0083 20.1559 21.8158 20.1411 21.6084 20.1411C20.8382 20.1411 20.3156 20.4691 20.0405 21.125V26H18.8662V19.1318H20.0088L20.0278 19.9253C20.4129 19.3117 20.9588 19.0049 21.6655 19.0049C21.894 19.0049 22.0675 19.0345 22.186 19.0938V20.1855ZM25.9946 26.127C25.0636 26.127 24.3062 25.8223 23.7222 25.2129C23.1382 24.5993 22.8462 23.7804 22.8462 22.7563V22.5405C22.8462 21.8592 22.9753 21.252 23.2334 20.7188C23.4958 20.1813 23.8597 19.7624 24.3252 19.4619C24.7949 19.1572 25.3027 19.0049 25.8486 19.0049C26.7415 19.0049 27.4355 19.299 27.9307 19.8872C28.4258 20.4754 28.6733 21.3175 28.6733 22.4136V22.9023H24.0205C24.0374 23.5794 24.2342 24.1274 24.6108 24.5464C24.9917 24.9611 25.4741 25.1685 26.0581 25.1685C26.4728 25.1685 26.8241 25.0838 27.1118 24.9146C27.3996 24.7453 27.6514 24.521 27.8672 24.2417L28.5845 24.8003C28.009 25.6847 27.1457 26.127 25.9946 26.127ZM25.8486 19.9697C25.3747 19.9697 24.9769 20.1432 24.6553 20.4902C24.3337 20.833 24.1348 21.3154 24.0586 21.9375H27.499V21.8486C27.4652 21.252 27.3044 20.7907 27.0166 20.4648C26.7288 20.1348 26.3395 19.9697 25.8486 19.9697ZM32.8882 26.127C31.9572 26.127 31.1997 25.8223 30.6157 25.2129C30.0317 24.5993 29.7397 23.7804 29.7397 22.7563V22.5405C29.7397 21.8592 29.8688 21.252 30.127 20.7188C30.3893 20.1813 30.7533 19.7624 31.2188 19.4619C31.6885 19.1572 32.1963 19.0049 32.7422 19.0049C33.6351 19.0049 34.3291 19.299 34.8242 19.8872C35.3193 20.4754 35.5669 21.3175 35.5669 22.4136V22.9023H30.9141C30.931 23.5794 31.1278 24.1274 31.5044 24.5464C31.8853 24.9611 32.3677 25.1685 32.9517 25.1685C33.3664 25.1685 33.7176 25.0838 34.0054 24.9146C34.2931 24.7453 34.5449 24.521 34.7607 24.2417L35.478 24.8003C34.9025 25.6847 34.0392 26.127 32.8882 26.127ZM32.7422 19.9697C32.2682 19.9697 31.8704 20.1432 31.5488 20.4902C31.2272 20.833 31.0283 21.3154 30.9521 21.9375H34.3926V21.8486C34.3587 21.252 34.1979 20.7907 33.9102 20.4648C33.6224 20.1348 33.2331 19.9697 32.7422 19.9697Z" fill="white"/>
</svg>
