<svg width="38" height="28" viewBox="0 0 38 28" fill="none" xmlns="http://www.w3.org/2000/svg">
<g clip-path="url(#clip0_1_305)">
<path d="M12.5875 4C11.9013 4 11.2431 4.27261 10.7579 4.75786C10.2726 5.24311 10 5.90125 10 6.5875V19.525C9.99966 19.8597 10.0672 20.191 10.1986 20.4989C10.3299 20.8067 10.5223 21.0847 10.7642 21.3161C11.0061 21.5475 11.2924 21.7274 11.6058 21.8449C11.9192 21.9625 12.2531 22.0152 12.5875 22H19.5625V15.025H17.3125V12.325H19.5625V10.3C19.5117 9.82449 19.566 9.34362 19.7217 8.89145C19.8774 8.43927 20.1305 8.02685 20.4633 7.68337C20.796 7.3399 21.2002 7.07377 21.6472 6.90384C22.0942 6.7339 22.5731 6.66431 23.05 6.7H25.1875V9.2875H23.725C22.6 9.2875 22.375 9.85 22.375 10.6375V12.325H25.075L24.7375 15.025H22.375V22H25.525C26.1814 22 26.8109 21.7392 27.2751 21.2751C27.7392 20.8109 28 20.1814 28 19.525V6.5875C28.0152 6.25314 27.9625 5.91916 27.8449 5.60578C27.7274 5.29239 27.5475 5.0061 27.3161 4.76422C27.0847 4.52235 26.8067 4.32991 26.4989 4.19856C26.191 4.0672 25.8597 3.99966 25.525 4H12.5875Z" fill="black"/>
</g>
<defs>
<clipPath id="clip0_1_305">
<rect width="18" height="18" fill="white" transform="translate(10 4)"/>
</clipPath>
</defs>
</svg>
