<svg width="120" height="14" viewBox="0 0 120 14" fill="none" xmlns="http://www.w3.org/2000/svg">
<path d="M0 0.390869H1.65444V13.0156H0V0.390869Z" fill="white"/>
<path d="M4.2088 0.390869H8.70455C9.63966 0.390869 10.4729 0.520535 11.2042 0.779868C11.9475 1.02741 12.5709 1.41052 13.0744 1.92918C13.5899 2.44785 13.9855 3.09618 14.2613 3.87417C14.537 4.65217 14.6749 5.56573 14.6749 6.61484C14.6749 7.67575 14.525 8.60699 14.2253 9.40856C13.9376 10.2101 13.518 10.8762 12.9665 11.4066C12.415 11.9371 11.7437 12.3378 10.9524 12.609C10.1612 12.8801 9.27401 13.0156 8.29094 13.0156H4.2088V0.390869ZM8.36287 11.6011C9.95736 11.6011 11.1203 11.165 11.8516 10.2927C12.5829 9.40856 12.9485 8.19441 12.9485 6.65021C12.9485 5.884 12.8646 5.2003 12.6968 4.59913C12.5409 3.99795 12.2891 3.49107 11.9415 3.0785C11.6058 2.65413 11.1682 2.33586 10.6287 2.12368C10.0892 1.89971 9.44784 1.78773 8.70455 1.78773H5.86323V11.6011H8.36287Z" fill="white"/>
<path d="M16.7593 0.390869H25.0674V1.82309H18.4137V5.7838H24.7078V7.2337H18.4137V11.5834H25.4091L25.1394 13.0156H16.7593V0.390869Z" fill="white"/>
<path d="M31.5791 0.390869H33.3235L38.3048 13.0156H36.5065L35.1577 9.49697H29.655L28.3062 13.0156H26.5799L31.5791 0.390869ZM34.6542 8.08243L32.3884 2.22977L30.1585 8.08243H34.6542Z" fill="white"/>
<path d="M40.3049 9.42615C40.4487 10.3102 40.8024 10.9527 41.3659 11.3535C41.9413 11.7425 42.7925 11.937 43.9195 11.937C44.4829 11.937 44.9505 11.878 45.3221 11.7601C45.7058 11.6305 46.0115 11.4654 46.2393 11.2651C46.4671 11.0529 46.6289 10.8112 46.7248 10.5401C46.8207 10.2572 46.8687 9.9625 46.8687 9.65601C46.8687 9.40847 46.8387 9.17271 46.7788 8.94874C46.7188 8.71299 46.5989 8.50081 46.4191 8.3122C46.2513 8.1236 46.0115 7.95857 45.6998 7.81711C45.4001 7.67566 45.0104 7.56367 44.5309 7.48116L42.9124 7.19825C42.277 7.09216 41.7136 6.95071 41.222 6.77389C40.7305 6.59707 40.3109 6.3731 39.9632 6.10198C39.6275 5.81908 39.3698 5.47133 39.1899 5.05876C39.0221 4.64619 38.9382 4.1452 38.9382 3.55581C38.9382 2.97821 39.0581 2.47133 39.2978 2.03518C39.5496 1.59903 39.8853 1.23361 40.3049 0.938915C40.7245 0.64422 41.222 0.426145 41.7975 0.284691C42.3729 0.143237 42.9963 0.0725098 43.6677 0.0725098C44.5189 0.0725098 45.2262 0.166813 45.7897 0.355418C46.3652 0.532235 46.8327 0.773886 47.1924 1.08037C47.552 1.38685 47.8218 1.74049 48.0016 2.14127C48.1934 2.53027 48.3373 2.93106 48.4332 3.34363L46.8867 3.64422C46.7908 3.29059 46.6649 2.97821 46.509 2.70709C46.3652 2.42418 46.1673 2.19432 45.9156 2.0175C45.6758 1.8289 45.3761 1.68744 45.0164 1.59314C44.6568 1.49884 44.2192 1.45169 43.7037 1.45169C43.1162 1.45169 42.6247 1.50473 42.2291 1.61082C41.8334 1.71691 41.5157 1.86426 41.276 2.05287C41.0362 2.22968 40.8624 2.44776 40.7545 2.70709C40.6586 2.95463 40.6106 3.21986 40.6106 3.50277C40.6106 3.80925 40.6466 4.08037 40.7185 4.31613C40.8024 4.5401 40.9343 4.74049 41.1141 4.91731C41.3059 5.08234 41.5517 5.22379 41.8514 5.34167C42.1511 5.44776 42.5228 5.54206 42.9664 5.62458L44.7647 5.94285C46.0954 6.19039 47.0725 6.60297 47.6959 7.18057C48.3193 7.74638 48.631 8.58332 48.631 9.69138C48.631 10.1983 48.5291 10.6757 48.3253 11.1236C48.1335 11.5597 47.8398 11.9429 47.4441 12.2729C47.0605 12.603 46.575 12.8623 45.9875 13.0509C45.4001 13.2395 44.7107 13.3338 43.9195 13.3338C43.1642 13.3338 42.4748 13.2572 41.8514 13.104C41.24 12.9625 40.7065 12.7326 40.2509 12.4144C39.7954 12.0961 39.4297 11.6894 39.154 11.1943C38.8782 10.6992 38.7104 10.1098 38.6505 9.42615H40.3049Z" fill="white"/>
<path d="M63.2929 3.96258C63.2929 4.98812 63.0112 5.81327 62.4477 6.43803C61.8962 7.06278 61.081 7.46946 60.002 7.65807L63.8504 13.0156H61.8543L58.2217 7.78184H55.9918V13.0156H54.3554V0.390869H58.5634C60.1219 0.390869 61.2968 0.691459 62.088 1.29264C62.8913 1.89382 63.2929 2.7838 63.2929 3.96258ZM55.9918 6.38498H58.7252C59.4685 6.38498 60.05 6.28478 60.4696 6.08439C60.8892 5.87221 61.1829 5.5893 61.3507 5.23567C61.5186 4.87025 61.6025 4.45767 61.6025 3.99795C61.6025 3.52643 61.5126 3.12565 61.3328 2.79559C61.1529 2.46553 60.8412 2.21209 60.3976 2.03527C59.9541 1.85846 59.3247 1.77005 58.5094 1.77005H55.9918V6.38498Z" fill="white"/>
<path d="M65.4307 0.390869H73.7388V1.82309H67.0851V5.7838H73.3792V7.2337H67.0851V11.5834H74.0805L73.8108 13.0156H65.4307V0.390869Z" fill="white"/>
<path d="M75.8211 0.390869H80.1191C81.0662 0.390869 81.8454 0.491066 82.4569 0.691459C83.0803 0.891852 83.5658 1.16297 83.9135 1.50482C84.2731 1.84667 84.5189 2.24745 84.6508 2.70718C84.7946 3.15512 84.8666 3.63252 84.8666 4.1394C84.8666 4.66985 84.7946 5.17673 84.6508 5.66003C84.5069 6.14333 84.2552 6.56769 83.8955 6.93311C83.5358 7.29854 83.0503 7.58734 82.4389 7.79952C81.8275 8.0117 81.0542 8.11779 80.1191 8.11779H77.4576V13.0156H75.8211V0.390869ZM80.1011 6.73862C80.7245 6.73862 81.24 6.67968 81.6476 6.5618C82.0552 6.44392 82.3729 6.273 82.6007 6.04903C82.8285 5.82506 82.9844 5.55983 83.0683 5.25335C83.1642 4.93508 83.2121 4.58144 83.2121 4.19245C83.2121 3.79166 83.1642 3.43802 83.0683 3.13154C82.9724 2.82506 82.8045 2.57162 82.5648 2.37123C82.325 2.17083 82.0013 2.02349 81.5937 1.92918C81.1981 1.82309 80.6945 1.77005 80.0831 1.77005H77.4576V6.73862H80.1011Z" fill="white"/>
<path d="M92.0823 13.3338C91.2071 13.3338 90.4039 13.1924 89.6726 12.9095C88.9533 12.6148 88.3299 12.1904 87.8024 11.6364C87.2869 11.0706 86.8852 10.3751 86.5975 9.54992C86.3098 8.72477 86.1659 7.78175 86.1659 6.72084C86.1659 5.65994 86.3098 4.71691 86.5975 3.89177C86.8972 3.06662 87.3048 2.37114 87.8204 1.80532C88.3479 1.23951 88.9713 0.809249 89.6906 0.514554C90.4219 0.219858 91.2191 0.0725098 92.0823 0.0725098C92.9575 0.0725098 93.7547 0.219858 94.4741 0.514554C95.2054 0.797462 95.8288 1.22182 96.3443 1.78764C96.8598 2.34167 97.2614 3.03126 97.5492 3.8564C97.8369 4.66976 97.9807 5.60689 97.9807 6.6678C97.9807 7.7287 97.8369 8.67762 97.5492 9.51456C97.2734 10.3397 96.8778 11.0352 96.3623 11.601C95.8468 12.1668 95.2234 12.5971 94.492 12.8918C93.7727 13.1865 92.9695 13.3338 92.0823 13.3338ZM92.0823 11.9193C92.7657 11.9193 93.3651 11.7955 93.8806 11.548C94.4081 11.3004 94.8457 10.9527 95.1934 10.5047C95.5411 10.045 95.8048 9.49688 95.9846 8.86033C96.1645 8.212 96.2544 7.49295 96.2544 6.70316C96.2544 5.92517 96.1645 5.2179 95.9846 4.58135C95.8048 3.93302 95.5351 3.379 95.1754 2.91927C94.8277 2.45954 94.3961 2.10591 93.8806 1.85837C93.3651 1.61082 92.7657 1.48705 92.0823 1.48705C91.387 1.48705 90.7756 1.61082 90.2481 1.85837C89.7326 2.10591 89.295 2.45954 88.9353 2.91927C88.5876 3.379 88.3239 3.93302 88.144 4.58135C87.9762 5.2179 87.8923 5.92517 87.8923 6.70316C87.8923 7.49295 87.9762 8.212 88.144 8.86033C88.3239 9.49688 88.5876 10.045 88.9353 10.5047C89.283 10.9527 89.7146 11.3004 90.2301 11.548C90.7576 11.7955 91.375 11.9193 92.0823 11.9193Z" fill="white"/>
<path d="M109.017 3.96258C109.017 4.98812 108.735 5.81327 108.172 6.43803C107.62 7.06278 106.805 7.46946 105.726 7.65807L109.574 13.0156H107.578L103.946 7.78184H101.716V13.0156H100.079V0.390869H104.287C105.846 0.390869 107.021 0.691459 107.812 1.29264C108.615 1.89382 109.017 2.7838 109.017 3.96258ZM101.716 6.38498H104.449C105.192 6.38498 105.774 6.28478 106.193 6.08439C106.613 5.87221 106.907 5.5893 107.075 5.23567C107.242 4.87025 107.326 4.45767 107.326 3.99795C107.326 3.52643 107.236 3.12565 107.057 2.79559C106.877 2.46553 106.565 2.21209 106.121 2.03527C105.678 1.85846 105.049 1.77005 104.233 1.77005H101.716V6.38498Z" fill="white"/>
<path d="M114.038 1.84077H109.794V0.390869H119.955V1.84077H115.711V13.0156H114.038V1.84077Z" fill="white"/>
</svg>
