<svg width="38" height="28" viewBox="0 0 38 28" fill="none" xmlns="http://www.w3.org/2000/svg">
<path d="M28 9.2875C27.9396 8.55904 27.7884 7.84098 27.55 7.15C27.3235 6.52792 26.9798 5.95506 26.5375 5.4625C26.0449 5.02017 25.4721 4.67646 24.85 4.45L22.7125 4H15.2875L13.15 4.45C12.5279 4.67646 11.9551 5.02017 11.4625 5.4625C11.0202 5.95506 10.6765 6.52792 10.45 7.15C10.2116 7.84098 10.0604 8.55904 10 9.2875V16.7125C10.0604 17.441 10.2116 18.159 10.45 18.85C10.6765 19.4721 11.0202 20.0449 11.4625 20.5375C11.9551 20.9798 12.5279 21.3235 13.15 21.55L15.2875 22H22.7125L24.85 21.55C25.4721 21.3235 26.0449 20.9798 26.5375 20.5375C26.9798 20.0449 27.3235 19.4721 27.55 18.85C27.7884 18.159 27.9396 17.441 28 16.7125V9.2875ZM26.3125 16.6C26.3156 17.1796 26.2007 17.7537 25.975 18.2875C25.8838 18.6972 25.6431 19.0582 25.3 19.3C25.0582 19.6431 24.6972 19.8838 24.2875 19.975C23.7537 20.2007 23.1796 20.3156 22.6 20.3125H15.4C14.8204 20.3156 14.2463 20.2007 13.7125 19.975C13.3028 19.8838 12.9418 19.6431 12.7 19.3C12.3569 19.0582 12.1162 18.6972 12.025 18.2875C11.7993 17.7537 11.6844 17.1796 11.6875 16.6C11.563 15.4043 11.5254 14.2011 11.575 13C11.5254 11.7989 11.563 10.5957 11.6875 9.4C11.6844 8.82044 11.7993 8.24631 12.025 7.7125C12.1162 7.3028 12.3569 6.94181 12.7 6.7C12.9418 6.35691 13.3028 6.11625 13.7125 6.025C14.2463 5.79927 14.8204 5.68445 15.4 5.6875H22.6C23.1796 5.68445 23.7537 5.79927 24.2875 6.025C24.6972 6.11625 25.0582 6.35691 25.3 6.7C25.6431 6.94181 25.8838 7.3028 25.975 7.7125C26.2007 8.24631 26.3156 8.82044 26.3125 9.4C26.437 10.5957 26.4746 11.7989 26.425 13C26.4746 14.2011 26.437 15.4043 26.3125 16.6V16.6Z" fill="black"/>
<path d="M19 8.38745C17.7767 8.38745 16.6035 8.87341 15.7385 9.73842C14.8735 10.6034 14.3875 11.7766 14.3875 13C14.3875 14.2233 14.8735 15.3965 15.7385 16.2615C16.6035 17.1265 17.7767 17.6125 19 17.6125C19.6057 17.6125 20.2055 17.4931 20.7651 17.2613C21.3248 17.0295 21.8332 16.6898 22.2615 16.2615C22.6899 15.8332 23.0296 15.3247 23.2614 14.7651C23.4932 14.2055 23.6125 13.6057 23.6125 13C23.6125 12.3942 23.4932 11.7944 23.2614 11.2348C23.0296 10.6752 22.6899 10.1667 22.2615 9.73842C21.8332 9.31011 21.3248 8.97036 20.7651 8.73856C20.2055 8.50676 19.6057 8.38745 19 8.38745V8.38745ZM19 16.0375C18.3993 16.0375 17.812 15.8593 17.3125 15.5255C16.813 15.1918 16.4236 14.7174 16.1937 14.1624C15.9638 13.6073 15.9037 12.9966 16.0209 12.4074C16.1381 11.8181 16.4274 11.2769 16.8522 10.8521C17.277 10.4273 17.8182 10.138 18.4074 10.0208C18.9966 9.90361 19.6074 9.96377 20.1624 10.1937C20.7174 10.4236 21.1918 10.8129 21.5256 11.3124C21.8594 11.8119 22.0375 12.3992 22.0375 13C22.0375 13.8055 21.7175 14.5781 21.1478 15.1478C20.5782 15.7174 19.8056 16.0375 19 16.0375Z" fill="black"/>
<path d="M24.85 8.16257C24.8659 8.30467 24.8515 8.44852 24.8078 8.58466C24.7641 8.7208 24.692 8.84614 24.5964 8.95242C24.5007 9.0587 24.3836 9.14351 24.2528 9.20128C24.122 9.25905 23.9805 9.28846 23.8375 9.28757C23.6854 9.30566 23.5312 9.28901 23.3865 9.23887C23.2417 9.18873 23.1103 9.10641 23.002 8.9981C22.8937 8.8898 22.8113 8.75833 22.7612 8.61361C22.7111 8.46888 22.6944 8.31466 22.7125 8.16257C22.7116 8.01959 22.741 7.87804 22.7988 7.74724C22.8566 7.61644 22.9414 7.49937 23.0477 7.40371C23.1539 7.30806 23.2793 7.236 23.4154 7.19229C23.5515 7.14857 23.6954 7.13418 23.8375 7.15007C24.106 7.15007 24.3636 7.25674 24.5534 7.44662C24.7433 7.63651 24.85 7.89404 24.85 8.16257V8.16257Z" fill="black"/>
</svg>
