<svg width="122" height="56" viewBox="0 0 122 56" fill="none" xmlns="http://www.w3.org/2000/svg">
<path d="M30.0196 7.51967C30.0196 11.8181 26.5429 14.9562 22.0704 14.9562C20.4218 14.9562 18.9527 14.5966 18.0713 13.9592C20.7482 12.8151 22.1357 10.4452 22.1357 7.47064C22.1357 3.98938 20.4218 2.01177 17.9243 2.01177H17.7448V19.4998C17.7448 22.3926 18.8384 24.2722 20.8135 25.6614H8C9.46907 24.1905 10.0567 22.3926 10.0567 19.4998V6.16312C10.0567 3.22122 9.46907 1.43973 8 0.00146484H19.9811C26.4286 0.00146484 30.0196 2.82896 30.0196 7.51967Z" fill="black"/>
<path d="M50.163 22.2943C49.7223 24.5988 47.8124 26.2168 45.2172 26.2168C43.0135 26.2168 41.3323 24.893 40.8263 23.3894C39.7326 25.3669 37.6759 26.2168 35.4723 26.2168C32.4362 26.2168 30.3796 24.2065 30.3796 21.4444C30.3796 18.2247 32.6811 15.9856 38.0024 14.6944L40.4508 14.106V10.8208C40.4508 8.76156 39.749 7.928 38.5084 7.928C37.3332 7.928 36.5659 8.69619 36.5659 9.75856C36.5659 10.6738 37.0067 11.2622 37.7739 11.9976C37.7739 13.1744 35.9457 14.3838 34.0359 14.3838C32.1751 14.3838 30.8529 12.9456 30.8529 11.1968C30.8529 8.07509 34.2971 5.88501 39.3572 5.88501C44.6295 5.88501 47.4208 8.12411 47.4208 13.109V20.9868C47.4208 21.9838 48.0083 22.6375 48.9224 22.6375C49.4611 22.6212 49.8692 22.5231 50.163 22.2943ZM40.4508 21.7549V15.8385L39.9775 15.9856C38.4105 16.4595 37.3332 17.4892 37.3332 19.5486C37.3332 21.3137 38.035 22.376 39.1613 22.376C39.749 22.376 40.2386 22.1963 40.4508 21.7549Z" fill="black"/>
<path d="M70.4844 15.1842C70.4844 22.5226 66.975 26.2163 61.4741 26.2163C60.1193 26.2163 59.1725 25.8568 58.5033 25.4482V27.3114C58.5033 30.1388 58.9767 30.907 61.1476 32.9991H49.493C50.9295 31.3156 51.5497 30.2043 51.5497 27.5402V14.2362C51.5497 12.2587 51.2885 11.229 50.0807 10.0849L49.2319 9.3167L58.3074 5.86816V8.76105C59.4011 6.99589 61.2782 5.86816 63.5471 5.86816C68.5093 5.86816 70.4844 10.4444 70.4844 15.1842ZM62.9758 16.2139C62.9758 11.9154 62.2086 9.72535 60.1846 9.72535C59.597 9.72535 59.0093 9.98684 58.5033 10.4281V23.5523C58.8298 23.8464 59.2052 23.9608 59.597 23.9608C61.2456 23.9445 62.9758 22.1957 62.9758 16.2139Z" fill="black"/>
<path d="M89.3038 19.4336C88.1283 24.5329 85.3048 26.2163 81.2077 26.2163C76.523 26.2163 72.1321 22.8005 72.1321 16.3936C72.1321 10.232 76.017 5.86816 81.1097 5.86816C84.4397 5.86816 89.1242 7.58427 89.1242 14.8573H78.0574C78.8246 18.7472 81.3546 20.7575 84.8641 20.7575C86.676 20.7575 87.9166 20.4306 89.3038 19.4336ZM77.8452 12.324V12.798H82.6768C82.6768 9.13693 81.877 7.99285 80.3263 7.99285C78.7593 7.99285 77.8452 9.57827 77.8452 12.324Z" fill="black"/>
<path d="M101.759 25.677H90.1037C91.5403 23.9935 92.1605 22.8822 92.1605 20.2181V14.2689C92.1605 12.1769 91.8665 11.1963 90.4793 9.90512L89.6794 9.16962L98.4778 5.86816V10.4444C99.3263 7.79675 100.632 5.86816 102.803 5.86816C104.566 5.86816 105.692 7.1103 105.692 8.94082C105.692 10.8858 104.485 12.2423 102.803 12.2423C102.444 11.3924 101.563 11.0002 100.746 11.0002C100.094 11.0002 99.4573 11.1799 99.1303 11.5068V19.973C99.1146 22.8168 99.6039 23.585 101.759 25.677Z" fill="black"/>
<path d="M110.137 2.39788H111.828C112.237 2.39788 112.566 2.44188 112.816 2.52987C113.064 2.6032 113.255 2.70587 113.387 2.83786C113.532 2.95519 113.628 3.10185 113.672 3.27784C113.73 3.43917 113.76 3.60782 113.76 3.78381C113.76 4.10647 113.701 4.37045 113.584 4.57577C113.481 4.76643 113.291 4.92043 113.013 5.03775L113.979 6.92965H112.838L112.003 5.25774H111.169V6.92965H110.137V2.39788ZM111.959 4.37778C112.34 4.37778 112.566 4.31912 112.64 4.2018C112.713 4.08447 112.75 3.94514 112.75 3.78381C112.75 3.65182 112.698 3.5345 112.596 3.43183C112.493 3.3145 112.237 3.25584 111.828 3.25584H111.169V4.37778H111.959ZM111.893 9.50353C111.22 9.50353 110.598 9.39353 110.027 9.17353C109.471 8.95353 108.988 8.63822 108.578 8.22761C108.183 7.81695 107.875 7.31831 107.656 6.73167C107.436 6.14503 107.326 5.48506 107.326 4.75176C107.326 4.01846 107.443 3.3585 107.678 2.77187C107.912 2.18523 108.234 1.68658 108.644 1.27594C109.068 0.865291 109.551 0.549973 110.093 0.329984C110.649 0.109994 111.249 0 111.893 0C112.581 0 113.203 0.109994 113.76 0.329984C114.331 0.549973 114.814 0.865291 115.209 1.27594C115.604 1.68658 115.912 2.18523 116.131 2.77187C116.35 3.3585 116.46 4.01846 116.46 4.75176C116.46 5.48506 116.343 6.14503 116.109 6.73167C115.875 7.31831 115.545 7.81695 115.121 8.22761C114.711 8.63822 114.228 8.95353 113.672 9.17353C113.115 9.39353 112.522 9.50353 111.893 9.50353ZM111.872 8.46961C112.882 8.46961 113.701 8.14691 114.331 7.50163C114.974 6.85633 115.297 5.93971 115.297 4.75176C115.297 3.56383 114.974 2.6472 114.331 2.0019C113.701 1.3566 112.882 1.03394 111.872 1.03394C110.862 1.03394 110.042 1.3566 109.412 2.0019C108.798 2.6472 108.49 3.56383 108.49 4.75176C108.49 5.93971 108.798 6.85633 109.412 7.50163C110.042 8.14691 110.862 8.46961 111.872 8.46961Z" fill="black"/>
<path d="M1 38.5916H2.7109V43.7491C3.13026 43.212 3.61539 42.7966 4.1663 42.5029C4.7172 42.2091 5.36641 42.0621 6.11393 42.0618C6.83486 42.0618 7.46746 42.1899 8.01171 42.4461C8.54512 42.6938 9.01027 43.0619 9.36856 43.5199C9.72919 43.98 9.99799 44.5264 10.175 45.1591C10.352 45.7918 10.4405 46.4917 10.4405 47.2588C10.4405 48.0768 10.3356 48.8152 10.1258 49.4741C9.91607 50.133 9.61465 50.6922 9.22156 51.1517C8.83408 51.6066 8.34581 51.9698 7.79353 52.214C7.23706 52.4633 6.61104 52.5879 5.91546 52.5879C5.32288 52.5874 4.7369 52.4666 4.19481 52.2332C3.63804 51.9969 3.1373 51.591 2.69259 51.0156V52.2816H1V38.5916ZM2.69259 47.603C2.69259 48.2423 2.76786 48.7887 2.91842 49.2422C3.06897 49.6957 3.27556 50.0696 3.53818 50.3639C3.79155 50.6526 4.11593 50.8739 4.48093 51.007C4.84774 51.1413 5.24754 51.2085 5.68035 51.2085C6.08061 51.2121 6.47784 51.1405 6.85032 50.9975C7.21079 50.8572 7.52225 50.6303 7.78472 50.3169C8.04719 50.0034 8.25362 49.5975 8.40402 49.0993C8.55458 48.6009 8.63001 47.9938 8.63032 47.278C8.63032 46.5491 8.54832 45.9388 8.38431 45.4469C8.22031 44.955 8.00731 44.5619 7.7453 44.2677C7.48253 43.9739 7.1842 43.7629 6.85032 43.6348C6.52169 43.508 6.17147 43.443 5.81807 43.4431C5.39452 43.4392 4.97408 43.514 4.57924 43.6635C4.20335 43.8076 3.86439 44.0302 3.58618 44.3157C3.30408 44.602 3.08443 44.966 2.92723 45.4075C2.77003 45.8491 2.69181 46.3572 2.69259 46.9319V47.603Z" fill="#161616"/>
<path d="M20.8705 42.3684L15.01 55.9999H13.2395L15.0684 52.031L10.8601 42.3684H12.8462L15.914 50.0771L18.9817 42.3684H20.8705Z" fill="#161616"/>
<path d="M25.4316 38.5916H27.4769L30.4072 49.8462L33.4552 38.649H35.4028L38.4314 49.8462L41.341 38.5916H43.2683L39.3744 52.2811H37.4669L34.3402 40.8343L31.2722 52.2811H29.4238L25.4316 38.5916Z" fill="#161616"/>
<path d="M52.4931 49.5013C52.3231 50.4599 51.8871 51.2141 51.1854 51.7637C50.4836 52.3133 49.4774 52.5882 48.1668 52.5882C46.6195 52.5882 45.433 52.1312 44.6072 51.2173C43.7815 50.3034 43.3686 49.0284 43.3684 47.3923C43.3684 46.536 43.4864 45.7754 43.7225 45.1105C43.9585 44.4455 44.2895 43.8896 44.7155 43.4426C45.1405 42.9961 45.6607 42.646 46.2395 42.4169C46.8296 42.1805 47.472 42.0623 48.1668 42.0623C48.9534 42.0623 49.6286 42.1837 50.1923 42.4267C50.7561 42.6696 51.2182 43.0051 51.5786 43.4331C51.9391 43.8614 52.2079 44.3695 52.385 44.9574C52.5622 45.5453 52.6507 46.1905 52.6505 46.893V47.7364H45.1C45.1 48.2348 45.1687 48.6982 45.3063 49.1265C45.4439 49.5548 45.6406 49.9255 45.8964 50.2387C46.1524 50.5524 46.4786 50.8048 46.85 50.9768C47.2303 51.156 47.6695 51.2455 48.1677 51.2454C49.0199 51.2454 49.6426 51.0887 50.0358 50.7754C50.429 50.4621 50.6979 50.0371 50.8422 49.5004L52.4931 49.5013ZM50.9396 46.491C50.9396 46.0183 50.8872 45.5901 50.7824 45.2065C50.6776 44.823 50.5137 44.4938 50.2906 44.2189C50.0676 43.9443 49.7791 43.7302 49.4253 43.5766C49.0715 43.4231 48.6454 43.3464 48.1471 43.3465C47.2427 43.3465 46.538 43.615 46.0332 44.152C45.5284 44.6889 45.2301 45.4686 45.1384 46.491H50.9396Z" fill="#161616"/>
<path d="M55.805 40.1636H51.1641V38.5916H62.2748V40.1636H57.6339V52.2804H55.805V40.1636Z" fill="#161616"/>
<path d="M61.023 42.3685H62.7142V43.9023C63.0941 43.353 63.5399 42.931 64.0513 42.6364C64.5628 42.3417 65.1069 42.1947 65.6836 42.1953C66.0376 42.1953 66.339 42.2209 66.5879 42.2722L66.3713 43.8252C66.2404 43.7999 66.109 43.7773 65.9772 43.7574C65.8339 43.7374 65.6893 43.7278 65.5445 43.7287C65.2164 43.731 64.8909 43.7861 64.5811 43.8917C64.2531 44.0005 63.945 44.1826 63.6567 44.4381C63.3752 44.6724 63.1445 44.9592 62.9783 45.2817C62.8144 45.6014 62.7325 45.972 62.7325 46.3937V52.281H61.0216L61.023 42.3685Z" fill="#161616"/>
<path d="M76.6197 42.3686V52.2811H74.9482V50.8624C74.5285 51.4122 74.0434 51.8372 73.4928 52.1374C72.9422 52.4376 72.293 52.5878 71.5452 52.5879C70.5488 52.5879 69.7327 52.3578 69.0969 51.8977C68.4612 51.4376 67.9892 50.8113 67.681 50.0187C67.3729 49.2264 67.2189 48.3448 67.2189 47.3738C67.2189 45.7248 67.6221 44.4273 68.4285 43.4815C69.2349 42.5357 70.3393 42.0627 71.7418 42.0627C72.2792 42.0627 72.8299 42.1746 73.3938 42.3982C73.9577 42.6219 74.4755 43.0277 74.9473 43.6158V42.3686H76.6197ZM74.9677 47.0284C74.9677 46.236 74.8792 45.6192 74.7022 45.1781C74.5252 44.737 74.2337 44.3629 73.8276 44.0559C73.5392 43.8258 73.2475 43.666 72.9526 43.5764C72.6367 43.4842 72.3084 43.439 71.9787 43.4424C71.4278 43.4424 70.9263 43.5705 70.4742 43.8267C70.0221 44.0829 69.6648 44.4946 69.4025 45.0617C69.1398 45.6304 69.0084 46.3877 69.0084 47.3336C69.0084 48.3052 69.1459 49.0721 69.4211 49.6344C69.6962 50.1967 70.0503 50.5961 70.4832 50.8325C70.9161 51.0691 71.3683 51.1874 71.8401 51.1872C72.22 51.1872 72.5609 51.1457 72.8626 51.0627C73.1643 50.9796 73.4657 50.823 73.7669 50.5929C74.1709 50.3016 74.484 49.9066 74.6711 49.452C74.8677 48.9857 74.966 48.4009 74.966 47.6978L74.9677 47.0284Z" fill="#161616"/>
<path d="M78.8785 42.3686H80.57V43.8832C81.0675 43.2314 81.6181 42.7652 82.2217 42.4846C82.8167 42.2052 83.4689 42.061 84.1293 42.0628C85.2828 42.0628 86.1383 42.3695 86.6955 42.9831C87.2527 43.5966 87.5314 44.4977 87.5314 45.6865V52.2811H85.8205V46.0112C85.8205 45.0909 85.65 44.4422 85.3092 44.065C84.9684 43.6878 84.444 43.4994 83.736 43.4998C83.3507 43.5007 82.9683 43.5655 82.6052 43.6915C82.2263 43.8226 81.8809 44.0319 81.5925 44.3051C81.2646 44.5863 81.0155 44.8835 80.8452 45.1966C80.6748 45.5098 80.5898 45.9157 80.5901 46.4142V52.2811H78.879L78.8785 42.3686Z" fill="#161616"/>
<path d="M90.8101 49.3859C90.9279 50.0762 91.2261 50.5584 91.7046 50.8327C92.1832 51.107 92.8355 51.2444 93.6615 51.2451C94.5271 51.2451 95.14 51.1012 95.5002 50.8135C95.8603 50.5258 96.0403 50.1457 96.04 49.6732C96.0406 49.4889 96.0172 49.3052 95.9704 49.1266C95.9239 48.9536 95.8324 48.7951 95.7047 48.6666C95.5735 48.5323 95.39 48.414 95.1542 48.3117C94.9185 48.2093 94.6104 48.1265 94.2298 48.063L92.9314 47.8713C92.3545 47.7819 91.8498 47.6669 91.4173 47.5261C90.9848 47.3854 90.6177 47.2032 90.316 46.9797C90.023 46.765 89.7906 46.4814 89.6406 46.1553C89.4899 45.8293 89.4145 45.4363 89.4145 44.9761C89.4145 44.516 89.5161 44.107 89.7192 43.7491C89.9264 43.3867 90.2157 43.0752 90.565 42.8383C90.9253 42.589 91.3513 42.3972 91.843 42.263C92.3347 42.1287 92.869 42.0616 93.4459 42.0618C94.18 42.0618 94.7929 42.1321 95.2846 42.2727C95.7763 42.4133 96.1794 42.605 96.4939 42.8478C96.799 43.0794 97.0476 43.3741 97.2218 43.7107C97.3935 44.0466 97.5258 44.4003 97.6159 44.7652L96.0625 45.0139C95.9809 44.7682 95.8755 44.5306 95.7478 44.3043C95.6316 44.1024 95.4699 43.929 95.2748 43.797C95.0782 43.6627 94.8386 43.5605 94.556 43.4902C94.2735 43.42 93.9228 43.3848 93.5039 43.3847C93.0321 43.3847 92.6388 43.4263 92.3239 43.5095C92.009 43.5927 91.7567 43.7044 91.5669 43.8447C91.3765 43.9858 91.2421 44.1424 91.1637 44.3147C91.0852 44.4866 91.0449 44.6729 91.0457 44.8611C91.0428 45.0461 91.0694 45.2304 91.1245 45.4075C91.1801 45.5727 91.2824 45.7192 91.4197 45.8302C91.5637 45.9518 91.7603 46.0573 92.0095 46.1467C92.2587 46.2361 92.5799 46.3127 92.9731 46.3766L94.4482 46.6067C95.6409 46.7974 96.4961 47.1295 97.0138 47.603C97.5314 48.0765 97.7904 48.7667 97.7905 49.6737C97.7905 50.0957 97.7055 50.4823 97.5355 50.8336C97.3654 51.1849 97.1098 51.4914 96.7687 51.753C96.4274 52.0149 96.0013 52.2195 95.4904 52.3665C94.9796 52.5136 94.383 52.5871 93.7007 52.587C93.0844 52.587 92.5109 52.5295 91.9801 52.4145C91.4493 52.2995 90.9806 52.1173 90.5741 51.8681C90.1694 51.6211 89.8321 51.2823 89.5907 50.8806C89.3416 50.4718 89.1973 49.9732 89.1581 49.385L90.8101 49.3859Z" fill="#161616"/>
<path d="M100.343 41.5249C100.343 40.8092 100.481 40.2243 100.756 39.7704C101.031 39.3165 101.395 38.981 101.847 38.764C102.3 38.5467 102.808 38.438 103.372 38.438C103.661 38.4374 103.95 38.4534 104.237 38.4859C104.53 38.5217 104.82 38.5827 105.102 38.6681L104.827 39.9718C104.632 39.911 104.431 39.8692 104.227 39.8473C104.041 39.8283 103.855 39.8186 103.668 39.8183C103.209 39.8183 102.815 39.9366 102.488 40.1733C102.16 40.4099 101.996 40.8412 101.995 41.4672V42.3683H104.572V43.6912H101.995V52.2815H100.284V43.6912H98.6912V42.4253H99.5762C99.917 42.4253 100.13 42.3677 100.215 42.2526C100.301 42.1374 100.343 41.8949 100.343 41.5249Z" fill="#161616"/>
<path d="M114.408 49.5013C114.238 50.4599 113.802 51.2141 113.1 51.7637C112.398 52.3133 111.392 52.5882 110.082 52.5882C108.535 52.5882 107.348 52.1312 106.522 51.2173C105.696 50.3034 105.283 49.0284 105.283 47.3923C105.283 46.536 105.401 45.7754 105.637 45.1105C105.873 44.4455 106.204 43.8896 106.631 43.4426C107.055 42.996 107.576 42.6459 108.155 42.4169C108.744 42.1805 109.387 42.0623 110.082 42.0623C110.868 42.0623 111.543 42.1837 112.107 42.4267C112.671 42.6696 113.133 43.0051 113.494 43.4331C113.854 43.8614 114.123 44.3695 114.3 44.9574C114.477 45.5453 114.566 46.1905 114.566 46.893V47.7364H107.014C107.014 48.2348 107.083 48.6982 107.22 49.1265C107.358 49.5548 107.555 49.9255 107.81 50.2387C108.066 50.5524 108.393 50.8049 108.764 50.9768C109.144 51.156 109.583 51.2455 110.082 51.2454C110.934 51.2454 111.556 51.0887 111.95 50.7754C112.343 50.4621 112.612 50.0371 112.756 49.5004L114.408 49.5013ZM112.855 46.491C112.855 46.0183 112.802 45.5901 112.697 45.2065C112.593 44.823 112.429 44.4938 112.206 44.2189C111.983 43.9443 111.694 43.7302 111.341 43.5766C110.987 43.4231 110.561 43.3464 110.062 43.3465C109.158 43.3465 108.453 43.615 107.948 44.152C107.444 44.6889 107.145 45.4686 107.053 46.491H112.855Z" fill="#161616"/>
<path d="M116.435 42.3685H118.126V43.9023C118.507 43.353 118.952 42.931 119.464 42.6364C119.975 42.3417 120.519 42.1947 121.096 42.1953C121.45 42.1953 121.751 42.2209 122 42.2722L121.784 43.8252C121.653 43.7999 121.521 43.7773 121.39 43.7574C121.246 43.7374 121.102 43.7278 120.957 43.7287C120.629 43.731 120.303 43.7861 119.993 43.8917C119.665 44.0005 119.357 44.1826 119.069 44.4381C118.788 44.6728 118.557 44.96 118.391 45.2829C118.227 45.6025 118.145 45.9732 118.145 46.3949V52.281H116.434L116.435 42.3685Z" fill="#161616"/>
</svg>
