<svg width="38" height="28" viewBox="0 0 38 28" fill="none" xmlns="http://www.w3.org/2000/svg">
<g clip-path="url(#clip0_1_301)">
<path d="M27.55 6.33835C26.8032 6.73687 26.0095 7.03998 25.1875 7.2406C24.8427 6.86378 24.4262 6.55991 23.9625 6.34685C23.4988 6.1338 22.9973 6.01587 22.4875 6C21.5106 6.01992 20.5808 6.42516 19.9 7.12782C19.5394 7.47911 19.2538 7.90016 19.0604 8.36545C18.867 8.83074 18.7699 9.33055 18.775 9.83459C18.7567 10.1397 18.7949 10.4456 18.8875 10.7368C17.3843 10.6704 15.9187 10.2451 14.6125 9.49624C13.275 8.84639 12.1163 7.87841 11.2375 6.67669C10.9283 7.2674 10.7735 7.92703 10.7875 8.59398C10.7346 9.2147 10.8536 9.83801 11.1316 10.3952C11.4095 10.9524 11.8354 11.4219 12.3625 11.7519C11.8026 11.7765 11.2499 11.6181 10.7875 11.3008V11.3008C10.7503 12.1605 11.0307 13.0038 11.575 13.6692C12.1022 14.3855 12.8555 14.9022 13.7125 15.1353H12.025C12.2324 15.9154 12.7112 16.5955 13.375 17.0526C13.9402 17.54 14.6549 17.8186 15.4 17.8421C14.1269 18.8736 12.5369 19.4315 10.9 19.4211H10C11.6642 20.5359 13.6235 21.1252 15.625 21.1128C17.1842 21.1387 18.7271 20.7907 20.125 20.0977C21.428 19.4947 22.5808 18.6087 23.5 17.5038C24.3052 16.4596 24.9849 15.3239 25.525 14.1203C25.9575 12.8877 26.1855 11.5923 26.2 10.2857V9.83459C26.9141 9.26891 27.5233 8.58175 28 7.80451C27.3436 8.16337 26.6101 8.3569 25.8625 8.36842C26.6472 7.91355 27.2452 7.19411 27.55 6.33835V6.33835Z" fill="black"/>
</g>
<defs>
<clipPath id="clip0_1_301">
<rect width="18" height="15" fill="white" transform="translate(10 6)"/>
</clipPath>
</defs>
</svg>
