<svg width="43" height="28" viewBox="0 0 43 28" fill="none" xmlns="http://www.w3.org/2000/svg">
<g clip-path="url(#clip0_1_315)">
<path d="M31.7542 6.2381C32.1286 6.56527 32.3957 6.99656 32.5208 7.47619C32.8507 9.29896 33.0111 11.148 33 13C33.0111 14.852 32.8507 16.701 32.5208 18.5238C32.4221 19.0142 32.1502 19.4534 31.7542 19.7619C31.4249 20.134 30.991 20.3994 30.5083 20.5238C28.6875 21 21.5 21 21.5 21C21.5 21 14.3125 21 12.4917 20.5238C11.9982 20.4257 11.5563 20.1555 11.2458 19.7619C10.8498 19.4534 10.5778 19.0142 10.4792 18.5238C10.1493 16.701 9.98889 14.852 9.99999 13C9.98889 11.148 10.1493 9.29896 10.4792 7.47619C10.6043 6.99656 10.8714 6.56527 11.2458 6.2381C11.5563 5.84451 11.9982 5.57426 12.4917 5.47619C14.3125 5 21.5 5 21.5 5C21.5 5 28.6875 5 30.5083 5.47619C30.991 5.60056 31.4249 5.86597 31.7542 6.2381V6.2381ZM25.1417 13L19.2 9.57143V16.4286L25.1417 13Z" fill="black"/>
</g>
<defs>
<clipPath id="clip0_1_315">
<rect width="23" height="16" fill="white" transform="translate(10 5)"/>
</clipPath>
</defs>
</svg>
